<svg width="24" height="24" viewBox="0 0 24 24" fill="none" xmlns="http://www.w3.org/2000/svg">
<path d="M5.25 2.25L8.4495 10.02C6.5325 11.211 5.25 13.3305 5.25 15.75C5.25 19.4715 8.27775 22.5 12 22.5C15.7222 22.5 18.75 19.4715 18.75 15.75C18.75 13.3313 17.4675 11.2118 15.5505 10.02L18.75 2.25H17.1285L14.1945 9.3735C13.6946 9.20009 13.176 9.08605 12.6495 9.03375L15.4403 2.25H13.8187L11.0048 9.0825C10.5967 9.14263 10.195 9.24004 9.80475 9.3735L6.8715 2.25H5.25ZM8.559 2.25L10.4648 6.8805L11.2762 4.91025L10.1812 2.25H8.559ZM12 10.5C14.8942 10.5 17.25 12.855 17.25 15.75C17.25 18.645 14.8942 21 12 21C9.10575 21 6.75 18.645 6.75 15.75C6.75 12.855 9.10575 10.5 12 10.5ZM12 12.8715L11.124 14.8365L9 15.069L10.59 16.497L10.1423 18.6045L12 17.5335L13.8577 18.606L13.4108 16.4985L15 15.0682L12.876 14.8358L12 12.8715Z" fill="white"/>
</svg>
