<svg width="32" height="32" viewBox="0 0 32 32" fill="none" xmlns="http://www.w3.org/2000/svg">
<path d="M28.3333 12.6667H26.3333M5.66667 12.6667H7.66667M17 1.33334V3.33334M8.986 4.65334L10.3993 6.06801M25.0133 4.65334L23.5987 6.06801M17.874 8.28468C11.9947 13.4167 5.66467 19.8713 3.416 22.198C2.88933 22.7427 2.72133 23.5367 3.02467 24.23C3.19 24.6067 3.38533 25.018 3.58733 25.368C3.78933 25.718 4.048 26.0927 4.292 26.424C4.74 27.034 5.512 27.2847 6.24667 27.1013C9.386 26.3167 18.1413 24.0627 25.5253 21.5373" stroke="#E8C96A" stroke-width="1.5" stroke-linecap="round" stroke-linejoin="round"/>
<path d="M14.408 11.462C14.408 11.462 15.802 12.8567 18.1653 16.95C20.5287 21.0434 21.0393 22.948 21.0393 22.948M15.1307 24.9047L15.5267 26.3834C15.6307 26.7716 15.6572 27.1766 15.6047 27.5751C15.5522 27.9736 15.4217 28.3579 15.2207 28.706C15.0197 29.0541 14.7521 29.3592 14.4332 29.6039C14.1143 29.8486 13.7503 30.028 13.362 30.132C12.9737 30.236 12.5688 30.2625 12.1702 30.21C11.7717 30.1575 11.3874 30.0271 11.0393 29.8261C10.6913 29.6251 10.3862 29.3575 10.1415 29.0385C9.8968 28.7196 9.71734 28.3556 9.61333 27.9674L9.284 26.7354M17.364 7.40002C17.364 7.40002 18.962 9.14736 22.1413 14.6547C25.3207 20.162 26.0353 22.4194 26.0353 22.4194" stroke="#E8C96A" stroke-width="1.5" stroke-linecap="round" stroke-linejoin="round"/>
</svg>
