<svg width="40" height="40" viewBox="0 0 40 40" fill="none" xmlns="http://www.w3.org/2000/svg">
<g filter="url(#filter0_d_596_297)">
<path d="M18.2887 12.7375C18.2258 12.5489 18.2403 12.3429 18.3292 12.165C18.418 11.9871 18.5739 11.8518 18.7625 11.7887L20.2625 11.2887C20.3752 11.2511 20.4953 11.2408 20.6128 11.2587C20.7303 11.2766 20.8419 11.3221 20.9383 11.3916C21.0348 11.461 21.1133 11.5524 21.1675 11.6582C21.2217 11.764 21.25 11.8811 21.25 12V17C21.25 17.1989 21.171 17.3897 21.0303 17.5303C20.8897 17.671 20.6989 17.75 20.5 17.75C20.3011 17.75 20.1103 17.671 19.9697 17.5303C19.829 17.3897 19.75 17.1989 19.75 17V13.04L19.2375 13.2113C19.0489 13.2742 18.8429 13.2597 18.665 13.1708C18.4871 13.082 18.3518 12.9261 18.2887 12.7375ZM34.75 26C34.75 26.1989 34.671 26.3897 34.5303 26.5303C34.3897 26.671 34.1989 26.75 34 26.75H6C5.80109 26.75 5.61032 26.671 5.46967 26.5303C5.32902 26.3897 5.25 26.1989 5.25 26C5.25 25.8011 5.32902 25.6103 5.46967 25.4697C5.61032 25.329 5.80109 25.25 6 25.25H7.25V13C7.25 12.5359 7.43437 12.0908 7.76256 11.7626C8.09075 11.4344 8.53587 11.25 9 11.25H14.25V7C14.25 6.53587 14.4344 6.09075 14.7626 5.76256C15.0908 5.43437 15.5359 5.25 16 5.25H24C24.4641 5.25 24.9092 5.43437 25.2374 5.76256C25.5656 6.09075 25.75 6.53587 25.75 7V16.25H31C31.4641 16.25 31.9092 16.4344 32.2374 16.7626C32.5656 17.0908 32.75 17.5359 32.75 18V25.25H34C34.1989 25.25 34.3897 25.329 34.5303 25.4697C34.671 25.6103 34.75 25.8011 34.75 26ZM25.75 17.75V25.25H31.25V18C31.25 17.9337 31.2237 17.8701 31.1768 17.8232C31.1299 17.7763 31.0663 17.75 31 17.75H25.75ZM15.75 25.25H24.25V7C24.25 6.9337 24.2237 6.87011 24.1768 6.82322C24.1299 6.77634 24.0663 6.75 24 6.75H16C15.9337 6.75 15.8701 6.77634 15.8232 6.82322C15.7763 6.87011 15.75 6.9337 15.75 7V25.25ZM8.75 25.25H14.25V12.75H9C8.9337 12.75 8.87011 12.7763 8.82322 12.8232C8.77634 12.8701 8.75 12.9337 8.75 13V25.25Z" fill="#E8C96A"/>
</g>
<defs>
<filter id="filter0_d_596_297" x="0" y="0" width="40" height="40" filterUnits="userSpaceOnUse" color-interpolation-filters="sRGB">
<feFlood flood-opacity="0" result="BackgroundImageFix"/>
<feColorMatrix in="SourceAlpha" type="matrix" values="0 0 0 0 0 0 0 0 0 0 0 0 0 0 0 0 0 0 127 0" result="hardAlpha"/>
<feOffset dy="4"/>
<feGaussianBlur stdDeviation="2"/>
<feComposite in2="hardAlpha" operator="out"/>
<feColorMatrix type="matrix" values="0 0 0 0 0 0 0 0 0 0 0 0 0 0 0 0 0 0 0.25 0"/>
<feBlend mode="normal" in2="BackgroundImageFix" result="effect1_dropShadow_596_297"/>
<feBlend mode="normal" in="SourceGraphic" in2="effect1_dropShadow_596_297" result="shape"/>
</filter>
</defs>
</svg>
