<svg width="24" height="24" viewBox="0 0 24 24" fill="none" xmlns="http://www.w3.org/2000/svg">
<g clip-path="url(#clip0_498_285)">
<path fill-rule="evenodd" clip-rule="evenodd" d="M19.0851 0.030841C19.2313 0.07114 19.3642 0.149496 19.4702 0.257915C19.5762 0.366334 19.6516 0.500935 19.6886 0.647984L20.4206 3.57941L23.352 4.31141C23.4991 4.34842 23.6338 4.42381 23.7422 4.52987C23.8506 4.63593 23.929 4.76888 23.9693 4.91512C24.0095 5.06137 24.0103 5.21568 23.9714 5.3623C23.9325 5.50893 23.8554 5.64261 23.748 5.7497L20.3194 9.17827C20.2148 9.28254 20.085 9.35801 19.9427 9.39736C19.8003 9.4367 19.6502 9.43859 19.5069 9.40284L16.7914 8.7257L12.7577 12.7577C12.5568 12.9587 12.2842 13.0716 12 13.0716C11.7158 13.0716 11.4432 12.9587 11.2423 12.7577C11.0413 12.5567 10.9284 12.2842 10.9284 12C10.9284 11.7158 11.0413 11.4432 11.2423 11.2423L15.2743 7.20856L14.5954 4.49313C14.5594 4.34956 14.5611 4.1991 14.6004 4.0564C14.6398 3.9137 14.7154 3.78362 14.82 3.67884L18.2486 0.25027C18.3559 0.14311 18.4897 0.0663389 18.6364 0.0277895C18.783 -0.0107599 18.9373 -0.00970692 19.0834 0.030841M11.3177 2.19084C11.6014 2.17175 11.8659 2.04073 12.053 1.82662C12.2401 1.6125 12.3345 1.33283 12.3154 1.04913C12.2963 0.765421 12.1653 0.500921 11.9512 0.313813C11.7371 0.126705 11.4574 0.0323168 11.1737 0.0514124C8.89182 0.210264 6.70347 1.02078 4.86863 2.38667C3.03379 3.75256 1.62958 5.61642 0.822795 7.75684C0.0160147 9.89726 -0.159423 12.2243 0.317322 14.4615C0.794067 16.6987 1.90296 18.752 3.51227 20.3775C5.12158 22.0031 7.16367 23.1325 9.39596 23.6317C11.6282 24.1309 13.9569 23.9788 16.1053 23.1936C18.2537 22.4083 20.1316 21.0229 21.5158 19.2019C22.9001 17.3808 23.7325 15.2007 23.9143 12.9206C23.937 12.6373 23.8463 12.3566 23.6621 12.1403C23.4779 11.9239 23.2153 11.7896 22.932 11.7668C22.6488 11.7441 22.3681 11.8348 22.1517 12.019C21.9353 12.2033 21.801 12.4659 21.7783 12.7491C21.6297 14.6209 20.9469 16.4107 19.811 17.9058C18.6751 19.401 17.1339 20.5386 15.3704 21.1836C13.607 21.8286 11.6955 21.9538 9.86301 21.5443C8.03051 21.1349 6.35407 20.208 5.03287 18.8738C3.71166 17.5396 2.80123 15.8542 2.40973 14.0178C2.01824 12.1813 2.16215 10.2711 2.82435 8.5141C3.48656 6.75707 4.63923 5.22707 6.14542 4.10587C7.6516 2.98467 9.44799 2.31941 11.3211 2.18913M11.1583 6.9377C11.2096 7.06872 11.2347 7.20857 11.2319 7.34926C11.2292 7.48996 11.1988 7.62874 11.1425 7.75769C11.0861 7.88663 11.0049 8.00321 10.9035 8.10077C10.8021 8.19833 10.6825 8.27495 10.5514 8.32627C9.94 8.56546 9.39785 8.95329 8.97399 9.45469C8.55014 9.95608 8.25796 10.5552 8.12388 11.1979C7.9898 11.8407 8.01805 12.5066 8.20608 13.1357C8.3941 13.7647 8.73597 14.337 9.20077 14.8007C9.66556 15.2644 10.2386 15.6049 10.8681 15.7915C11.4976 15.978 12.1636 16.0047 12.806 15.8691C13.4484 15.7335 14.0469 15.4399 14.5473 15.0149C15.0477 14.5899 15.4342 14.0468 15.672 13.4348C15.7796 13.1768 15.9837 12.9711 16.2409 12.8615C16.498 12.7519 16.7879 12.7472 17.0485 12.8483C17.3091 12.9494 17.5198 13.1484 17.6358 13.4027C17.7518 13.6571 17.7637 13.9466 17.6691 14.2097C17.303 15.1546 16.7069 15.9933 15.935 16.6499C15.163 17.3064 14.2395 17.7601 13.2481 17.9699C12.2566 18.1797 11.2285 18.1389 10.2568 17.8512C9.28509 17.5636 8.40044 17.0382 7.68293 16.3225C6.96541 15.6069 6.43769 14.7236 6.14751 13.7526C5.85733 12.7817 5.81387 11.7537 6.02105 10.7617C6.22823 9.76969 6.67951 8.84502 7.33406 8.07136C7.9886 7.2977 8.82574 6.69948 9.76972 6.33084C9.90073 6.2795 10.0406 6.25447 10.1813 6.25718C10.322 6.25989 10.4608 6.29029 10.5897 6.34664C10.7186 6.403 10.8352 6.4842 10.9328 6.58561C11.0303 6.68703 11.107 6.80667 11.1583 6.9377Z" fill="white"/>
</g>
<defs>
<clipPath id="clip0_498_285">
<rect width="24" height="24" fill="white"/>
</clipPath>
</defs>
</svg>
