<svg width="32" height="32" viewBox="0 0 32 32" fill="none" xmlns="http://www.w3.org/2000/svg">
<path d="M7 3L11.266 13.36C8.71 14.948 7 17.774 7 21C7 25.962 11.037 30 16 30C20.963 30 25 25.962 25 21C25 17.775 23.29 14.949 20.734 13.36L25 3H22.838L18.926 12.498C18.2595 12.2668 17.568 12.1147 16.866 12.045L20.587 3H18.425L14.673 12.11C14.1289 12.1902 13.5934 12.3201 13.073 12.498L9.162 3H7ZM11.412 3L13.953 9.174L15.035 6.547L13.575 3H11.412ZM16 14C19.859 14 23 17.14 23 21C23 24.86 19.859 28 16 28C12.141 28 9 24.86 9 21C9 17.14 12.141 14 16 14ZM16 17.162L14.832 19.782L12 20.092L14.12 21.996L13.523 24.806L16 23.378L18.477 24.808L17.881 21.998L20 20.091L17.168 19.781L16 17.162Z" fill="#E8C96A"/>
</svg>
