<svg width="24" height="24" viewBox="0 0 24 24" fill="none" xmlns="http://www.w3.org/2000/svg">
<path d="M21.75 12C21.75 6.61547 17.3845 2.25 12 2.25C6.61547 2.25 2.25 6.61547 2.25 12C2.25 17.3845 6.61547 21.75 12 21.75C17.3845 21.75 21.75 17.3845 21.75 12Z" stroke="#060D1F" stroke-miterlimit="10"/>
<path d="M20.8861 8.06906C20.1333 8.07374 20.2073 9.46265 19.2694 8.80734C18.9211 8.56452 18.7069 8.21156 18.2695 8.10421C17.8875 8.01046 17.4961 8.10796 17.1187 8.17312C16.6898 8.24718 16.1812 8.28046 15.8559 8.60531C15.5414 8.91796 15.375 9.33749 15.0403 9.65202C14.3929 10.2614 14.1197 10.9266 14.5387 11.7881C14.9419 12.6164 15.7851 13.0659 16.695 13.0069C17.5889 12.9473 18.5175 12.4289 18.4917 13.7278C18.4823 14.1872 18.5784 14.5059 18.7195 14.933C18.8503 15.3267 18.8414 15.7083 18.8714 16.1147C18.9267 16.8741 19.0664 17.7253 19.4433 18.3961L20.1464 17.4042C20.2331 17.2814 20.4145 17.1094 20.4576 16.9645C20.534 16.7081 20.3836 16.2675 20.3662 15.9801C20.3489 15.6928 20.3573 15.4017 20.3133 15.1144C20.2514 14.7117 20.0133 14.3344 19.9804 13.9364C19.92 13.1953 20.0554 12.6037 19.4845 11.9841C18.9333 11.3864 18.1251 11.243 17.3531 11.3644C16.964 11.4253 15.3979 11.6756 16.0265 10.7864C16.1508 10.6116 16.3678 10.4681 16.5075 10.3017C16.6289 10.1569 16.7344 9.89062 16.8769 9.77765C17.0194 9.66468 17.6737 9.53484 17.8612 9.59249C18.0487 9.65015 18.2442 9.92062 18.4069 10.0406C18.7074 10.267 19.0581 10.4175 19.4292 10.4794C20.0695 10.5731 21.4083 10.2009 21.3979 9.37968C21.3961 8.98593 21.0304 8.43749 20.8861 8.06906ZM13.4742 14.8266C13.2244 13.7747 11.7951 13.4231 11.0245 12.8526C10.5815 12.5245 10.1873 12.0178 9.6056 11.9766C9.33748 11.9573 9.11294 12.0155 8.84716 11.9466C8.60341 11.8837 8.41216 11.7525 8.15248 11.7867C7.66732 11.8505 7.36123 12.3689 6.83998 12.2986C6.34544 12.232 5.83591 11.6536 5.72341 11.1825C5.57904 10.5769 6.0581 10.3805 6.57138 10.3266C6.7856 10.3041 7.02607 10.2797 7.23185 10.358C7.50279 10.4587 7.63076 10.7241 7.87404 10.8581C8.33013 11.108 8.42248 10.7086 8.35263 10.3036C8.2481 9.69702 8.12623 9.44952 8.66716 9.03234C9.04216 8.74452 9.36279 8.5364 9.30279 8.01937C9.26716 7.71562 9.10076 7.57827 9.25591 7.27593C9.37357 7.04577 9.69654 6.83812 9.90701 6.70077C10.4503 6.3464 12.2344 6.37265 11.5054 5.38077C11.2912 5.08968 10.8961 4.56937 10.5211 4.49812C10.0523 4.40952 9.84419 4.93265 9.51748 5.16327C9.17998 5.40187 8.52279 5.67281 8.18482 5.3039C7.73013 4.80749 8.48623 4.64437 8.65357 4.29796C8.82091 3.95156 8.26591 3.29671 7.96873 3.13077L6.57138 4.69781C6.53124 4.96024 6.54521 5.22811 6.61245 5.48494C6.67968 5.74178 6.79874 5.98214 6.96232 6.19124C7.24029 6.5489 7.68279 6.66374 7.70294 7.15218C7.72263 7.62093 7.64951 7.86093 7.34294 8.19046C7.21029 8.33109 7.11654 8.53077 6.98154 8.66249C6.81607 8.82327 6.87748 8.77406 6.61919 8.81812C6.13357 8.90015 5.72013 9.02671 5.25091 9.15609C4.46904 9.37218 4.39685 8.09484 4.0406 7.59374L2.86873 8.54015C2.85607 8.69531 3.06091 8.98077 3.11669 9.14952C3.43685 10.1137 4.08279 10.8595 4.49998 11.782C4.93919 12.7589 6.11857 12.488 6.63935 13.3439C7.10154 14.1033 6.60794 15.0647 6.95388 15.8597C7.20513 16.4367 7.79763 16.5628 8.20638 16.9847C8.62404 17.4108 8.61513 17.9939 8.67888 18.5484C8.75074 19.2007 8.86743 19.8472 9.0281 20.4834C9.08482 20.7033 9.13685 20.9939 9.28732 21.1753C9.39044 21.3 9.74435 21.4073 9.60138 21.4486C9.80107 21.4814 10.1569 21.668 10.3233 21.5311C10.5426 21.3511 10.484 20.797 10.522 20.5467C10.6359 19.8014 11.009 19.0725 11.5125 18.5147C12.0098 17.9644 12.6914 17.5917 13.1114 16.9678C13.5206 16.3594 13.6439 15.5386 13.4742 14.8266ZM11.909 16.0603C11.6278 16.5623 11.0015 16.8984 10.5989 17.2973C10.4897 17.4056 10.2572 17.7806 10.1203 17.6995C10.0223 17.6414 9.98904 17.1548 9.95294 17.0433C9.76674 16.4815 9.41126 15.9911 8.93529 15.6394C8.78857 15.5283 8.42482 15.3839 8.34091 15.2316C8.24716 15.0661 8.33154 14.6756 8.33482 14.4956C8.33998 14.2331 8.22044 13.7967 8.28513 13.5581C8.36013 13.283 8.21576 13.4489 8.46185 13.3945C8.59169 13.3655 9.12794 13.4597 9.28966 13.4934C9.54654 13.5469 9.6881 13.7067 9.8906 13.8684C10.4231 14.2955 11.0095 14.6259 11.6062 14.9531C12.0684 15.2091 12.2044 15.533 11.909 16.0603ZM8.64654 3.14484C8.86873 3.36187 9.07779 3.61874 9.40919 3.64031C9.72279 3.6614 10.0186 3.49171 10.2923 3.70499C10.5961 3.93937 10.815 4.23609 11.2181 4.30921C11.6081 4.37999 12.0211 4.15218 12.1176 3.75327C12.2114 3.37312 12.0094 2.95968 11.9972 2.57812C11.9972 2.52515 12.0258 2.28984 11.9892 2.24999C11.962 2.21999 11.7351 2.25374 11.7004 2.25468C11.4464 2.26218 11.1929 2.27968 10.9401 2.30718C10.0185 2.40694 9.11589 2.63819 8.25982 2.9939C8.37373 3.07265 8.51669 3.10406 8.64654 3.14484ZM16.7062 5.77827C17.1042 5.77827 17.5083 5.60015 17.3798 5.13984C17.272 4.75406 17.0883 4.33546 16.6411 4.54359C16.3565 4.67577 15.9534 5.01234 15.9201 5.34609C15.8822 5.72484 16.4409 5.77827 16.7062 5.77827ZM16.3884 7.79249C16.7948 8.03578 17.3976 7.9214 17.7042 7.57406C17.9437 7.30218 18.0848 6.83015 18.5156 6.83062C18.7053 6.83022 18.8874 6.90448 19.0228 7.03734C19.2009 7.22156 19.1658 7.39452 19.2037 7.62515C19.2886 8.14312 19.844 7.65468 19.9889 7.45406C20.0826 7.32328 20.2097 7.12921 20.167 6.95906C20.1276 6.80015 19.942 6.63093 19.8595 6.48515C19.6186 6.06327 19.4203 5.57249 19.0594 5.23171C18.712 4.90359 18.285 4.94156 17.9554 5.28234C17.6854 5.56359 17.3719 5.78624 17.1872 6.12843C17.0569 6.3689 16.9101 6.48374 16.6462 6.54609C16.5009 6.58031 16.335 6.59296 16.2131 6.69046C15.8737 6.95765 16.0669 7.59937 16.3884 7.79249Z" fill="#060D1F"/>
</svg>
