<svg width="24" height="24" viewBox="0 0 24 24" fill="none" xmlns="http://www.w3.org/2000/svg">
<path d="M6 18.517C7.7963 19.6495 9.87647 20.2506 12 20.2506M12 20.2506C14.1235 20.2506 16.2037 19.6495 18 18.517M12 20.2506V23.25M12 17.25C14.188 17.25 16.2865 16.3808 17.8336 14.8336C19.3808 13.2865 20.25 11.188 20.25 9C20.25 6.81196 19.3808 4.71354 17.8336 3.16637C16.2865 1.61919 14.188 0.75 12 0.75C9.81196 0.75 7.71354 1.61919 6.16637 3.16637C4.61919 4.71354 3.75 6.81196 3.75 9C3.75 11.188 4.61919 13.2865 6.16637 14.8336C7.71354 16.3808 9.81196 17.25 12 17.25Z" stroke="white" stroke-width="1.5" stroke-linecap="round" stroke-linejoin="round"/>
<path d="M13.5 11.625C13.4005 11.625 13.3052 11.5855 13.2348 11.5152C13.1645 11.4448 13.125 11.3495 13.125 11.25C13.125 11.1505 13.1645 11.0552 13.2348 10.9848C13.3052 10.9145 13.4005 10.875 13.5 10.875M13.5 11.625C13.5995 11.625 13.6948 11.5855 13.7652 11.5152C13.8355 11.4448 13.875 11.3495 13.875 11.25C13.875 11.1505 13.8355 11.0552 13.7652 10.9848C13.6948 10.9145 13.5995 10.875 13.5 10.875M12 14.625C11.9005 14.625 11.8052 14.5855 11.7348 14.5152C11.6645 14.4448 11.625 14.3495 11.625 14.25C11.625 14.1505 11.6645 14.0552 11.7348 13.9848C11.8052 13.9145 11.9005 13.875 12 13.875M12 14.625C12.0995 14.625 12.1948 14.5855 12.2652 14.5152C12.3355 14.4448 12.375 14.3495 12.375 14.25C12.375 14.1505 12.3355 14.0552 12.2652 13.9848C12.1948 13.9145 12.0995 13.875 12 13.875M15.75 13.875C15.6505 13.875 15.5552 13.8355 15.4848 13.7652C15.4145 13.6948 15.375 13.5995 15.375 13.5C15.375 13.4005 15.4145 13.3052 15.4848 13.2348C15.5552 13.1645 15.6505 13.125 15.75 13.125M15.75 13.875C15.8495 13.875 15.9448 13.8355 16.0152 13.7652C16.0855 13.6948 16.125 13.5995 16.125 13.5C16.125 13.4005 16.0855 13.3052 16.0152 13.2348C15.9448 13.1645 15.8495 13.125 15.75 13.125M17.25 10.875C17.1505 10.875 17.0552 10.8355 16.9848 10.7652C16.9145 10.6948 16.875 10.5995 16.875 10.5C16.875 10.4005 16.9145 10.3052 16.9848 10.2348C17.0552 10.1645 17.1505 10.125 17.25 10.125M17.25 10.875C17.3495 10.875 17.4448 10.8355 17.5152 10.7652C17.5855 10.6948 17.625 10.5995 17.625 10.5C17.625 10.4005 17.5855 10.3052 17.5152 10.2348C17.4448 10.1645 17.3495 10.125 17.25 10.125" stroke="white" stroke-width="1.5"/>
</svg>
