<svg width="32" height="32" viewBox="0 0 32 32" fill="none" xmlns="http://www.w3.org/2000/svg">
<path d="M8.0008 10H24.0008C26.0008 10 27.6675 12 28.0008 14L30.0008 26C30.3343 28.0011 28.0008 30 26.0008 30H6.0008C4.0008 30 1.6673 28.0011 2.0008 26L4.0008 14C4.33414 12 6.0008 10 8.0008 10Z" stroke="#E8C96A" stroke-linecap="round" stroke-linejoin="round"/>
<path d="M10 14V7.97675" stroke="#E8C96A" stroke-linecap="round" stroke-linejoin="round"/>
<path d="M22 8V14" stroke="#E8C96A" stroke-linecap="round" stroke-linejoin="round"/>
<path d="M2.38672 23.9148H29.6142" stroke="#E8C96A" stroke-linecap="round" stroke-linejoin="round"/>
<path d="M22 8C22 6 20.8376 3.86838 18.9884 2.80073C17.1392 1.73309 14.8608 1.73309 13.0116 2.80073C11.1624 3.86838 10 6 10 8" stroke="#E8C96A" stroke-linecap="round" stroke-linejoin="round"/>
</svg>
