<svg width="42" height="42" viewBox="0 0 42 42" fill="none" xmlns="http://www.w3.org/2000/svg">
<path d="M12.25 15.75L20.5975 8.28625C22.8655 6.2615 23.9977 5.25 25.375 5.25C26.7523 5.25 27.8862 6.2615 30.1525 8.28625L38.5 15.75M14.875 14V35M35.875 35V14" stroke="#E8C96A" stroke-width="1.5" stroke-linecap="round" stroke-linejoin="round"/>
<path d="M6.125 24.5C7.57475 24.5 8.75 22.933 8.75 21C8.75 19.067 7.57475 17.5 6.125 17.5C4.67525 17.5 3.5 19.067 3.5 21C3.5 22.933 4.67525 24.5 6.125 24.5Z" stroke="#E8C96A" stroke-width="1.5"/>
<path d="M6.125 24.5V35" stroke="#E8C96A" stroke-width="1.5" stroke-linecap="round"/>
<path d="M3.5 35H38.5M21 35V28C21 26.3497 21 25.5255 21.5128 25.0128C22.0255 24.5 22.8497 24.5 24.5 24.5H26.25C27.9003 24.5 28.7245 24.5 29.2373 25.0128C29.75 25.5255 29.75 26.3497 29.75 28V35M23.625 19.25H27.125M23.625 14H27.125" stroke="#E8C96A" stroke-width="1.5" stroke-linecap="round" stroke-linejoin="round"/>
</svg>
