<svg width="42" height="42" viewBox="0 0 42 42" fill="none" xmlns="http://www.w3.org/2000/svg">
<path d="M34.1285 35.875C33.6443 35.875 33.2307 35.7052 32.8877 35.3657C32.5447 35.0262 32.3738 34.6138 32.375 34.1285C32.3762 33.6432 32.5459 33.2296 32.8843 32.8877C33.2226 32.5459 33.635 32.375 34.1215 32.375C34.608 32.375 35.0216 32.5447 35.3623 32.8842C35.7029 33.2237 35.8738 33.6362 35.875 34.1215C35.8762 34.6068 35.7064 35.0204 35.3657 35.3622C35.0251 35.7041 34.6127 35.875 34.1285 35.875ZM17.5035 37.625C14.8318 37.625 12.5592 37.3718 10.6855 36.8655C8.81183 36.3603 7.875 35.7385 7.875 35C7.875 34.4342 8.51317 33.9296 9.7895 33.4862C11.0658 33.0429 12.4472 32.7512 13.9335 32.6112V33.8555C13.9335 34.2172 14.0618 34.5322 14.3185 34.8005C14.5775 35.0688 14.8977 35.203 15.2793 35.203C15.6409 35.203 15.9559 35.0688 16.2242 34.8005C16.4914 34.5322 16.625 34.2172 16.625 33.8555V7.17499C16.625 6.62666 16.8461 6.21599 17.2882 5.94299C17.7304 5.66999 18.1872 5.65658 18.6585 5.90274L25.2595 9.09824C25.7927 9.35141 26.0645 9.77491 26.075 10.3687C26.0855 10.9626 25.8265 11.3867 25.298 11.641L18.375 15.211V32.396C20.8833 32.5407 22.9688 32.8475 24.6313 33.3165C26.2937 33.7855 27.125 34.3467 27.125 35C27.125 35.7385 26.1893 36.3603 24.318 36.8655C22.4478 37.3718 20.1763 37.625 17.5035 37.625Z" fill="#E8C96A"/>
</svg>
