<svg width="24" height="24" viewBox="0 0 24 24" fill="none" xmlns="http://www.w3.org/2000/svg">
<path d="M12.787 5.80699C12.9241 5.86376 13.0412 5.9599 13.1236 6.08326C13.206 6.20661 13.25 6.35164 13.25 6.49999V10.5C13.25 10.6989 13.171 10.8897 13.0303 11.0303C12.8897 11.171 12.6989 11.25 12.5 11.25C12.3011 11.25 12.1103 11.171 11.9697 11.0303C11.829 10.8897 11.75 10.6989 11.75 10.5V8.30999L11.53 8.52999C11.4613 8.60368 11.3785 8.66278 11.2865 8.70377C11.1945 8.74476 11.0952 8.7668 10.9945 8.76858C10.8938 8.77036 10.7938 8.75183 10.7004 8.71411C10.607 8.67639 10.5222 8.62025 10.451 8.54903C10.3797 8.47781 10.3236 8.39298 10.2859 8.29959C10.2482 8.2062 10.2296 8.10617 10.2314 8.00547C10.2332 7.90476 10.2552 7.80545 10.2962 7.71345C10.3372 7.62145 10.3963 7.53865 10.47 7.46999L11.97 5.96999C12.0748 5.8651 12.2084 5.79363 12.3538 5.76462C12.4992 5.73561 12.65 5.75035 12.787 5.80699Z" fill="white"/>
<path fill-rule="evenodd" clip-rule="evenodd" d="M7.498 1.60698C8.98606 1.36246 10.492 1.24305 12 1.24998C13.828 1.24998 15.339 1.41098 16.502 1.60698L16.637 1.62998C17.647 1.79898 18.487 1.93998 19.143 2.74798C19.564 3.26698 19.7 3.82798 19.731 4.45298L20.223 4.61698C20.686 4.77098 21.093 4.90698 21.414 5.05698C21.762 5.21898 22.081 5.42698 22.325 5.76598C22.569 6.10498 22.666 6.47298 22.71 6.85398C22.75 7.20698 22.75 7.63398 22.75 8.12398V8.26798C22.75 8.66998 22.75 9.02498 22.72 9.32198C22.688 9.64298 22.617 9.95598 22.44 10.258C22.261 10.561 22.022 10.775 21.757 10.959C21.512 11.129 21.202 11.302 20.85 11.497L18.21 12.964C17.67 14.025 16.93 14.971 15.91 15.654C15.035 16.241 13.988 16.613 12.75 16.719V18.75H14.18C14.5846 18.75 14.9767 18.8902 15.2895 19.1467C15.6024 19.4032 15.8167 19.7602 15.896 20.157L16.115 21.25H18C18.1989 21.25 18.3897 21.329 18.5303 21.4697C18.671 21.6103 18.75 21.8011 18.75 22C18.75 22.1989 18.671 22.3897 18.5303 22.5303C18.3897 22.671 18.1989 22.75 18 22.75H6C5.80109 22.75 5.61032 22.671 5.46967 22.5303C5.32902 22.3897 5.25 22.1989 5.25 22C5.25 21.8011 5.32902 21.6103 5.46967 21.4697C5.61032 21.329 5.80109 21.25 6 21.25H7.885L8.104 20.157C8.1833 19.7602 8.39761 19.4032 8.71047 19.1467C9.02334 18.8902 9.41542 18.75 9.82 18.75H11.25V16.719C10.012 16.613 8.965 16.241 8.09 15.655C7.071 14.971 6.33 14.025 5.79 12.964L3.15 11.497C2.83924 11.3322 2.53656 11.1527 2.243 10.959C1.96606 10.7797 1.73298 10.5405 1.561 10.259C1.3982 9.97169 1.30216 9.65144 1.28 9.32198C1.25 9.02498 1.25 8.66998 1.25 8.26798V8.12298C1.25 7.63498 1.25 7.20698 1.29 6.85398C1.334 6.47298 1.43 6.10398 1.675 5.76598C1.919 5.42698 2.238 5.21898 2.585 5.05598C2.908 4.90598 3.314 4.77098 3.777 4.61698L4.269 4.45298C4.3 3.82698 4.436 3.26698 4.857 2.74798C5.514 1.93898 6.353 1.79798 7.364 1.62998L7.498 1.60698ZM9.415 21.25H14.585L14.425 20.451C14.4137 20.3943 14.3831 20.3433 14.3384 20.3067C14.2938 20.2701 14.2378 20.25 14.18 20.25H9.82C9.76223 20.25 9.70625 20.2701 9.66158 20.3067C9.61692 20.3433 9.58632 20.3943 9.575 20.451L9.415 21.25ZM4.302 6.02298C4.374 7.54298 4.545 9.22298 4.973 10.793L3.907 10.202C3.518 9.98498 3.274 9.84898 3.098 9.72698C2.936 9.61398 2.883 9.54698 2.854 9.49698C2.824 9.44698 2.792 9.36898 2.772 9.17298C2.75133 8.86077 2.74399 8.54782 2.75 8.23498V8.16198C2.75 7.62298 2.751 7.28198 2.78 7.02398C2.808 6.78598 2.852 6.69698 2.892 6.64298C2.931 6.58798 3.001 6.51798 3.218 6.41698C3.454 6.30698 3.778 6.19798 4.288 6.02698L4.302 6.02298ZM19.027 10.793L20.093 10.202C20.482 9.98498 20.726 9.84898 20.902 9.72698C21.064 9.61398 21.117 9.54698 21.146 9.49698C21.176 9.44698 21.208 9.36898 21.228 9.17298C21.249 8.95898 21.25 8.67998 21.25 8.23498V8.16198C21.25 7.62298 21.249 7.28198 21.22 7.02398C21.192 6.78598 21.148 6.69698 21.108 6.64298C21.069 6.58798 20.999 6.51798 20.782 6.41698C20.546 6.30698 20.222 6.19798 19.712 6.02698L19.698 6.02298C19.627 7.54298 19.454 9.22298 19.027 10.793ZM12 2.74998C10.26 2.74998 8.833 2.90298 7.748 3.08598C6.541 3.28998 6.288 3.36598 6.022 3.69398C5.76 4.01598 5.735 4.32198 5.788 5.67698C5.878 7.93498 6.176 10.373 7.098 12.227C7.554 13.141 8.15 13.889 8.926 14.409C9.696 14.926 10.691 15.25 12 15.25C13.31 15.25 14.304 14.926 15.075 14.409C15.851 13.889 16.446 13.141 16.901 12.226C17.824 10.373 18.122 7.93598 18.211 5.67598C18.266 4.32198 18.241 4.01598 17.979 3.69398C17.713 3.36598 17.459 3.28998 16.252 3.08598C14.8465 2.8559 13.4242 2.74351 12 2.74998Z" fill="white"/>
</svg>
