<svg width="24" height="24" viewBox="0 0 24 24" fill="none" xmlns="http://www.w3.org/2000/svg">
<path d="M4.93 4.92901C5.11751 4.74137 5.37188 4.6359 5.63715 4.6358C5.90242 4.63571 6.15686 4.741 6.3445 4.92851C6.53214 5.11601 6.63761 5.37038 6.6377 5.63565C6.6378 5.90092 6.53251 6.15537 6.345 6.34301C4.84492 7.84327 4.00221 9.87795 4.00221 11.9995C4.00221 14.1211 4.84492 16.1557 6.345 17.656C6.53264 17.8435 6.63811 18.0979 6.6382 18.3632C6.6383 18.6284 6.53301 18.8829 6.3455 19.0705C6.15799 19.2581 5.90362 19.3636 5.63835 19.3637C5.37308 19.3638 5.11864 19.2585 4.931 19.071C1.025 15.166 1.025 8.83401 4.931 4.92901M17.659 4.92901C17.8465 4.74153 18.1008 4.63622 18.366 4.63622C18.6312 4.63622 18.8855 4.74153 19.073 4.92901C22.979 8.83401 22.979 15.166 19.073 19.071C18.8854 19.2585 18.6309 19.3638 18.3656 19.3637C18.1004 19.3636 17.846 19.2581 17.6585 19.0705C17.471 18.8829 17.3657 18.6284 17.3658 18.3632C17.3659 18.0979 17.4714 17.8435 17.659 17.656C19.1591 16.1557 20.0018 14.1211 20.0018 11.9995C20.0018 9.87795 19.1591 7.84327 17.659 6.34301C17.4715 6.15548 17.3662 5.90117 17.3662 5.63601C17.3662 5.37084 17.4715 5.11653 17.659 4.92901ZM7.759 7.75701C7.94747 7.57471 8.2 7.47373 8.4622 7.47582C8.72441 7.47792 8.9753 7.58291 9.16084 7.76819C9.34638 7.95346 9.45172 8.20421 9.45419 8.4664C9.45665 8.7286 9.35603 8.98128 9.174 9.17001C8.80254 9.54144 8.50789 9.98241 8.30686 10.4677C8.10582 10.953 8.00235 11.4732 8.00235 11.9985C8.00235 12.5238 8.10582 13.044 8.30686 13.5293C8.50789 14.0146 8.80254 14.4556 9.174 14.827C9.35616 15.0156 9.45695 15.2682 9.45467 15.5304C9.45239 15.7926 9.34723 16.0434 9.16182 16.2288C8.97641 16.4142 8.7256 16.5194 8.4634 16.5217C8.2012 16.524 7.9486 16.4232 7.76 16.241C6.63487 15.1158 6.00278 13.5897 6.00278 11.9985C6.00278 10.4073 6.63487 8.88121 7.76 7.75601M14.831 7.75601C15.0185 7.56853 15.2728 7.46322 15.538 7.46322C15.8032 7.46322 16.0575 7.56853 16.245 7.75601C17.3701 8.88121 18.0022 10.4073 18.0022 11.9985C18.0022 13.5897 17.3701 15.1158 16.245 16.241C16.0564 16.4232 15.8038 16.524 15.5416 16.5217C15.2794 16.5194 15.0286 16.4142 14.8432 16.2288C14.6578 16.0434 14.5526 15.7926 14.5503 15.5304C14.548 15.2682 14.6488 15.0156 14.831 14.827C15.2025 14.4556 15.4971 14.0146 15.6981 13.5293C15.8992 13.044 16.0026 12.5238 16.0026 11.9985C16.0026 11.4732 15.8992 10.953 15.6981 10.4677C15.4971 9.98241 15.2025 9.54144 14.831 9.17001C14.6435 8.98248 14.5382 8.72817 14.5382 8.46301C14.5382 8.19784 14.6435 7.94353 14.831 7.75601ZM12 10.5C12.3978 10.5 12.7794 10.658 13.0607 10.9393C13.342 11.2206 13.5 11.6022 13.5 12C13.5 12.3978 13.342 12.7794 13.0607 13.0607C12.7794 13.342 12.3978 13.5 12 13.5C11.6022 13.5 11.2206 13.342 10.9393 13.0607C10.658 12.7794 10.5 12.3978 10.5 12C10.5 11.6022 10.658 11.2206 10.9393 10.9393C11.2206 10.658 11.6022 10.5 12 10.5Z" fill="white"/>
</svg>
