<svg width="24" height="24" viewBox="0 0 24 24" fill="none" xmlns="http://www.w3.org/2000/svg">
<path d="M4.92996 4.929C5.11747 4.74136 5.37184 4.63589 5.63711 4.6358C5.90238 4.6357 6.15682 4.74099 6.34446 4.9285C6.53211 5.11601 6.63757 5.37037 6.63767 5.63564C6.63776 5.90091 6.53247 6.15536 6.34496 6.343C4.84489 7.84326 4.00217 9.87794 4.00217 11.9995C4.00217 14.1211 4.84489 16.1557 6.34496 17.656C6.53261 17.8435 6.63807 18.0979 6.63817 18.3631C6.63826 18.6284 6.53297 18.8829 6.34546 19.0705C6.15796 19.2581 5.90359 19.3636 5.63832 19.3637C5.37305 19.3638 5.11861 19.2585 4.93096 19.071C1.02496 15.166 1.02496 8.834 4.93096 4.929M17.659 4.929C17.8465 4.74153 18.1008 4.63621 18.366 4.63621C18.6311 4.63621 18.8854 4.74153 19.073 4.929C22.979 8.834 22.979 15.166 19.073 19.071C18.8853 19.2585 18.6309 19.3638 18.3656 19.3637C18.1003 19.3636 17.846 19.2581 17.6585 19.0705C17.471 18.8829 17.3657 18.6284 17.3658 18.3631C17.3659 18.0979 17.4713 17.8435 17.659 17.656C19.159 16.1557 20.0018 14.1211 20.0018 11.9995C20.0018 9.87794 19.159 7.84326 17.659 6.343C17.4715 6.15547 17.3662 5.90116 17.3662 5.636C17.3662 5.37083 17.4715 5.11653 17.659 4.929ZM7.75896 7.757C7.94744 7.5747 8.19997 7.47373 8.46217 7.47582C8.72437 7.47791 8.97526 7.5829 9.1608 7.76818C9.34634 7.95346 9.45169 8.2042 9.45415 8.4664C9.45661 8.72859 9.35599 8.98127 9.17396 9.17C8.80251 9.54144 8.50785 9.9824 8.30682 10.4677C8.10579 10.953 8.00232 11.4732 8.00232 11.9985C8.00232 12.5238 8.10579 13.044 8.30682 13.5293C8.50785 14.0146 8.80251 14.4556 9.17396 14.827C9.35612 15.0156 9.45692 15.2682 9.45464 15.5304C9.45236 15.7926 9.34719 16.0434 9.16178 16.2288C8.97638 16.4142 8.72556 16.5194 8.46337 16.5217C8.20117 16.5239 7.94857 16.4232 7.75996 16.241C6.63483 15.1158 6.00275 13.5897 6.00275 11.9985C6.00275 10.4073 6.63483 8.88121 7.75996 7.756M14.831 7.756C15.0185 7.56853 15.2728 7.46321 15.538 7.46321C15.8031 7.46321 16.0574 7.56853 16.245 7.756C17.3701 8.88121 18.0022 10.4073 18.0022 11.9985C18.0022 13.5897 17.3701 15.1158 16.245 16.241C16.0564 16.4232 15.8038 16.5239 15.5416 16.5217C15.2794 16.5194 15.0286 16.4142 14.8431 16.2288C14.6577 16.0434 14.5526 15.7926 14.5503 15.5304C14.548 15.2682 14.6488 15.0156 14.831 14.827C15.2024 14.4556 15.4971 14.0146 15.6981 13.5293C15.8991 13.044 16.0026 12.5238 16.0026 11.9985C16.0026 11.4732 15.8991 10.953 15.6981 10.4677C15.4971 9.9824 15.2024 9.54144 14.831 9.17C14.6435 8.98247 14.5382 8.72816 14.5382 8.463C14.5382 8.19783 14.6435 7.94353 14.831 7.756ZM12 10.5C12.3978 10.5 12.7793 10.658 13.0606 10.9393C13.3419 11.2206 13.5 11.6022 13.5 12C13.5 12.3978 13.3419 12.7794 13.0606 13.0607C12.7793 13.342 12.3978 13.5 12 13.5C11.6021 13.5 11.2206 13.342 10.9393 13.0607C10.658 12.7794 10.5 12.3978 10.5 12C10.5 11.6022 10.658 11.2206 10.9393 10.9393C11.2206 10.658 11.6021 10.5 12 10.5Z" fill="#74FF6D"/>
</svg>
