<svg width="24" height="24" viewBox="0 0 24 24" fill="none" xmlns="http://www.w3.org/2000/svg">
<g clip-path="url(#clip0_533_1434)">
<path d="M7.58643 15H16.5864L16.8172 13.5H7.81719L7.58643 15Z" fill="#E8C96A"/>
<path d="M21.8964 0.75L21.1266 6H19.7426L20.6012 0.75H19.0812L17.4256 10.875H7.30408C6.78051 10.8755 6.27346 11.0583 5.87009 11.3921C5.46672 11.7259 5.19224 12.1898 5.09383 12.704L4.65536 15.0059C3.89841 15.0463 3.16724 15.2946 2.54213 15.7234C1.91703 16.1521 1.42217 16.7449 1.11189 17.4365C0.801605 18.1281 0.687901 18.8919 0.783259 19.6439C0.878618 20.3959 1.17935 21.1071 1.65244 21.6994C2.12553 22.2917 2.75267 22.7421 3.46502 23.0013C4.17736 23.2605 4.94735 23.3184 5.69044 23.1687C6.43354 23.0189 7.121 22.6673 7.67733 22.1524C8.23367 21.6375 8.63737 20.9793 8.84411 20.25H14.7212C16.3481 20.25 17.9202 19.6624 19.1483 18.5954C20.3764 17.5283 21.1778 16.0537 21.405 14.4427L23.4124 0.75H21.8964ZM4.87507 21.75C4.35589 21.75 3.84837 21.596 3.41669 21.3076C2.98501 21.0192 2.64856 20.6092 2.44988 20.1295C2.2512 19.6499 2.19922 19.1221 2.3005 18.6129C2.40179 18.1037 2.6518 17.636 3.01891 17.2688C3.38602 16.9017 3.85375 16.6517 4.36295 16.5504C4.87215 16.4492 5.39995 16.5011 5.87961 16.6998C6.35927 16.8985 6.76923 17.2349 7.05767 17.6666C7.34611 18.0983 7.50006 18.6058 7.50006 19.125C7.49928 19.821 7.22247 20.4882 6.73036 20.9803C6.23824 21.4724 5.57102 21.7492 4.87507 21.75ZM19.9202 14.2297C19.7838 15.1973 19.3784 16.1072 18.7501 16.8555C18.371 17.3085 17.9191 17.6953 17.413 18C16.6007 18.4903 15.67 18.7497 14.7212 18.75H8.98286C8.94814 18.3643 8.85886 17.9856 8.71769 17.625H16.1828L16.4135 16.125H7.70317C7.62111 16.0476 7.53594 15.9736 7.44766 15.903C7.05951 15.5922 6.61829 15.3541 6.14533 15.2004L6.54063 13.125L6.56739 12.9847C6.60018 12.8133 6.69166 12.6586 6.82611 12.5474C6.96056 12.4361 7.12957 12.3752 7.30408 12.375H18.7002L19.4973 7.5H20.9068L19.9202 14.2297Z" fill="#E8C96A"/>
</g>
<defs>
<clipPath id="clip0_533_1434">
<rect width="24" height="24" fill="white"/>
</clipPath>
</defs>
</svg>
