<svg width="24" height="24" viewBox="0 0 24 24" fill="none" xmlns="http://www.w3.org/2000/svg">
<g filter="url(#filter0_d_540_1829)">
<g clip-path="url(#clip0_540_1829)">
<path d="M7.19327 1.78044L7.11402 1.8525L9.88859 4.591C9.48021 5.25085 9.26779 6.01317 9.27609 6.78912C9.25978 7.31111 9.3513 7.83084 9.54493 8.31586C9.73856 8.80087 10.0301 9.24075 10.4014 9.60799C10.7728 9.97523 11.2158 10.2619 11.7029 10.4502C12.19 10.6385 12.7108 10.7243 13.2325 10.7022C14.0157 10.7139 14.7858 10.5014 15.4521 10.0897L18.2411 12.8643C17.5002 13.8323 16.5438 14.6144 15.448 15.1485C14.3522 15.6827 13.1471 15.9542 11.9281 15.9416C10.8907 15.9569 9.86067 15.7654 8.89809 15.3783C7.93551 14.9912 7.05968 14.4163 6.32171 13.6871C5.58375 12.9578 4.99843 12.0889 4.59993 11.131C4.20143 10.1731 3.99773 9.14536 4.00071 8.10787C3.98391 6.87403 4.26541 5.65439 4.82126 4.55272C5.37711 3.45106 6.19086 2.50003 7.19327 1.78044ZM8.74271 0.720999C9.80392 0.238926 10.9572 -0.00694801 12.1227 0.000374401C13.1564 -0.0101601 14.1819 0.184953 15.1395 0.574364C16.0971 0.963775 16.9677 1.53971 17.7007 2.26867C18.4336 2.99763 19.0143 3.86506 19.409 4.8205C19.8037 5.77594 20.0044 6.80033 19.9996 7.83406C20.0119 9.00241 19.7658 10.159 19.279 11.2212L16.7926 8.73487C17.1934 8.08499 17.4055 7.33642 17.4051 6.57287C17.4266 6.04696 17.3387 5.52232 17.147 5.03212C16.9553 4.54192 16.6639 4.09682 16.2914 3.72497C15.9189 3.35312 15.4733 3.0626 14.9827 2.87178C14.4922 2.68096 13.9674 2.59399 13.4415 2.61637C12.6774 2.61219 11.9278 2.82458 11.2795 3.22894L8.74271 0.720999ZM13.4847 8.8285C13.1729 8.83935 12.8621 8.78641 12.5714 8.67292C12.2808 8.55943 12.0163 8.38778 11.7943 8.16849C11.5724 7.9492 11.3975 7.68689 11.2804 7.39763C11.1634 7.10838 11.1067 6.79827 11.1137 6.48631C11.1016 6.17138 11.1547 5.85734 11.2695 5.56382C11.3842 5.27031 11.5583 5.00362 11.7809 4.78043C12.0034 4.55724 12.2695 4.38234 12.5627 4.26666C12.8559 4.15098 13.1697 4.09701 13.4847 4.10812C13.7983 4.10116 14.1099 4.15803 14.4008 4.27526C14.6917 4.3925 14.9557 4.56766 15.1768 4.79009C15.3979 5.01253 15.5715 5.2776 15.6869 5.56919C15.8024 5.86079 15.8574 6.17281 15.8485 6.48631C15.8607 6.79998 15.8078 7.11278 15.6934 7.40506C15.5789 7.69734 15.4052 7.96279 15.1832 8.18476C14.9613 8.40672 14.6958 8.5804 14.4035 8.69489C14.1112 8.80938 13.7984 8.86221 13.4848 8.85006L13.4847 8.8285Z" fill="#00ABE4"/>
</g>
</g>
<defs>
<filter id="filter0_d_540_1829" x="0" y="0" width="24" height="24" filterUnits="userSpaceOnUse" color-interpolation-filters="sRGB">
<feFlood flood-opacity="0" result="BackgroundImageFix"/>
<feColorMatrix in="SourceAlpha" type="matrix" values="0 0 0 0 0 0 0 0 0 0 0 0 0 0 0 0 0 0 127 0" result="hardAlpha"/>
<feOffset dy="4"/>
<feGaussianBlur stdDeviation="2"/>
<feComposite in2="hardAlpha" operator="out"/>
<feColorMatrix type="matrix" values="0 0 0 0 0 0 0 0 0 0 0 0 0 0 0 0 0 0 0.25 0"/>
<feBlend mode="normal" in2="BackgroundImageFix" result="effect1_dropShadow_540_1829"/>
<feBlend mode="normal" in="SourceGraphic" in2="effect1_dropShadow_540_1829" result="shape"/>
</filter>
<clipPath id="clip0_540_1829">
<rect width="16" height="16" fill="white" transform="translate(4)"/>
</clipPath>
</defs>
</svg>
