<svg width="24" height="16" viewBox="0 0 24 16" fill="none" xmlns="http://www.w3.org/2000/svg">
<g clip-path="url(#clip0_540_1823)">
<path d="M13.4642 15.9075H22.386C22.6694 15.9075 22.9478 15.8341 23.1932 15.6945C23.437 15.5564 23.6408 15.3555 23.784 15.1121C23.9253 14.8716 24 14.5967 24 14.3167C24 14.0374 23.9251 13.7632 23.7833 13.5214L17.7917 3.29524C17.6485 3.0519 17.4447 2.85112 17.201 2.71305C16.9544 2.57298 16.6765 2.49959 16.394 2.49991C16.1106 2.49991 15.8323 2.57343 15.5869 2.71305C15.3431 2.85109 15.1394 3.05188 14.9963 3.29524L13.4642 5.91172L10.4689 0.795143C10.3255 0.551885 10.1217 0.351158 9.87787 0.213048C9.63115 0.0731455 9.35325 -0.000202681 9.07069 4.20647e-07C8.78737 4.20647e-07 8.50894 0.0735242 8.2635 0.213048C8.01976 0.351171 7.81599 0.551897 7.67259 0.795143L0.216562 13.5214C0.0750814 13.7618 0.000250536 14.0366 0 14.3167C0 14.5959 0.0743437 14.8703 0.216 15.1121C0.359195 15.3555 0.562962 15.5564 0.806813 15.6945C1.05348 15.8345 1.33142 15.9079 1.614 15.9075H7.21434C9.43331 15.9075 11.0696 14.9471 12.1957 13.0734L14.9293 8.40838L16.3935 5.91172L20.7879 13.411H14.9293L13.4642 15.9075ZM7.12294 13.4085L3.21469 13.4075L9.07331 3.40914L11.9965 8.40838L10.0393 11.7497C9.29156 12.9654 8.44209 13.4084 7.12303 13.4084" fill="#00DC82"/>
</g>
<defs>
<clipPath id="clip0_540_1823">
<rect width="24" height="16" fill="white"/>
</clipPath>
</defs>
</svg>
