<svg width="42" height="42" viewBox="0 0 42 42" fill="none" xmlns="http://www.w3.org/2000/svg">
<path d="M13.125 11.8125H18.375M13.125 21H28.875M13.125 26.25H28.875M13.125 31.5H18.375M10.5 38.0625H31.5C32.1962 38.0625 32.8639 37.7859 33.3562 37.2937C33.8484 36.8014 34.125 36.1337 34.125 35.4375V6.5625C34.125 5.86631 33.8484 5.19863 33.3562 4.70634C32.8639 4.21406 32.1962 3.9375 31.5 3.9375H10.5C9.80381 3.9375 9.13613 4.21406 8.64384 4.70634C8.15156 5.19863 7.875 5.86631 7.875 6.5625V35.4375C7.875 36.1337 8.15156 36.8014 8.64384 37.2937C9.13613 37.7859 9.80381 38.0625 10.5 38.0625Z" stroke="#E8C96A" stroke-linecap="round" stroke-linejoin="round"/>
<path d="M28.875 12.4688C29.2374 12.4688 29.5312 12.1749 29.5312 11.8125C29.5312 11.4501 29.2374 11.1562 28.875 11.1562C28.5126 11.1562 28.2188 11.4501 28.2188 11.8125C28.2188 12.1749 28.5126 12.4688 28.875 12.4688Z" fill="#E8C96A" stroke="#E8C96A" stroke-width="0.5"/>
</svg>
