<svg width="24" height="24" viewBox="0 0 24 24" fill="none" xmlns="http://www.w3.org/2000/svg">
<path d="M12 15C13.6569 15 15 13.6569 15 12C15 10.3431 13.6569 9 12 9C10.3431 9 9 10.3431 9 12C9 13.6569 10.3431 15 12 15Z" stroke="white" stroke-width="1.5"/>
<path d="M13.765 2.152C13.398 2 12.932 2 12 2C11.068 2 10.602 2 10.235 2.152C9.99218 2.25251 9.77155 2.3999 9.58572 2.58572C9.3999 2.77155 9.25251 2.99218 9.152 3.235C9.06 3.458 9.023 3.719 9.009 4.098C9.00249 4.37193 8.9266 4.63973 8.78844 4.87635C8.65028 5.11298 8.45436 5.31069 8.219 5.451C7.97981 5.58477 7.71059 5.65567 7.43653 5.65707C7.16248 5.65847 6.89255 5.59032 6.652 5.459C6.316 5.281 6.073 5.183 5.832 5.151C5.30632 5.08187 4.7747 5.22431 4.354 5.547C4.04 5.79 3.806 6.193 3.34 7C2.874 7.807 2.64 8.21 2.589 8.605C2.55464 8.86545 2.57192 9.13012 2.63987 9.38389C2.70781 9.63767 2.82509 9.87556 2.985 10.084C3.133 10.276 3.34 10.437 3.661 10.639C4.134 10.936 4.438 11.442 4.438 12C4.438 12.558 4.134 13.064 3.661 13.36C3.34 13.563 3.132 13.724 2.985 13.916C2.82509 14.1244 2.70781 14.3623 2.63987 14.6161C2.57192 14.8699 2.55464 15.1345 2.589 15.395C2.641 15.789 2.874 16.193 3.339 17C3.806 17.807 4.039 18.21 4.354 18.453C4.56244 18.6129 4.80033 18.7302 5.05411 18.7981C5.30788 18.8661 5.57255 18.8834 5.833 18.849C6.073 18.817 6.316 18.719 6.652 18.541C6.89255 18.4097 7.16248 18.3415 7.43653 18.3429C7.71059 18.3443 7.97981 18.4152 8.219 18.549C8.702 18.829 8.989 19.344 9.009 19.902C9.023 20.282 9.059 20.542 9.152 20.765C9.25251 21.0078 9.3999 21.2284 9.58572 21.4143C9.77155 21.6001 9.99218 21.7475 10.235 21.848C10.602 22 11.068 22 12 22C12.932 22 13.398 22 13.765 21.848C14.0078 21.7475 14.2284 21.6001 14.4143 21.4143C14.6001 21.2284 14.7475 21.0078 14.848 20.765C14.94 20.542 14.977 20.282 14.991 19.902C15.011 19.344 15.298 18.828 15.781 18.549C16.0202 18.4152 16.2894 18.3443 16.5635 18.3429C16.8375 18.3415 17.1075 18.4097 17.348 18.541C17.684 18.719 17.927 18.817 18.167 18.849C18.4275 18.8834 18.6921 18.8661 18.9459 18.7981C19.1997 18.7302 19.4376 18.6129 19.646 18.453C19.961 18.211 20.194 17.807 20.66 17C21.126 16.193 21.36 15.79 21.411 15.395C21.4454 15.1345 21.4281 14.8699 21.3601 14.6161C21.2922 14.3623 21.1749 14.1244 21.015 13.916C20.867 13.724 20.66 13.563 20.339 13.361C20.1049 13.2184 19.9109 13.0187 19.775 12.7807C19.6391 12.5427 19.5658 12.2741 19.562 12C19.562 11.442 19.866 10.936 20.339 10.64C20.66 10.437 20.868 10.276 21.015 10.084C21.1749 9.87556 21.2922 9.63767 21.3601 9.38389C21.4281 9.13012 21.4454 8.86545 21.411 8.605C21.359 8.211 21.126 7.807 20.661 7C20.194 6.193 19.961 5.79 19.646 5.547C19.4376 5.38709 19.1997 5.26981 18.9459 5.20187C18.6921 5.13392 18.4275 5.11664 18.167 5.151C17.927 5.183 17.684 5.281 17.347 5.459C17.1066 5.59014 16.8368 5.6582 16.563 5.6568C16.2891 5.6554 16.0201 5.58459 15.781 5.451C15.5456 5.31069 15.3497 5.11298 15.2116 4.87635C15.0734 4.63973 14.9975 4.37193 14.991 4.098C14.977 3.718 14.941 3.458 14.848 3.235C14.7475 2.99218 14.6001 2.77155 14.4143 2.58572C14.2284 2.3999 14.0078 2.25251 13.765 2.152Z" stroke="white" stroke-width="1.5"/>
</svg>
