<svg width="19" height="27" viewBox="0 0 19 27" fill="none" xmlns="http://www.w3.org/2000/svg">
<path d="M7.75 20.318V12.5889M7.75 12.5889V1.5234C7.74994 1.39549 7.77452 1.26957 7.82154 1.15692C7.86856 1.04427 7.93654 0.948408 8.01939 0.877933C8.10225 0.807458 8.19739 0.764572 8.29628 0.75312C8.39517 0.741668 8.49472 0.762008 8.586 0.812316L17.03 5.47555C17.136 5.5341 17.2267 5.63078 17.2912 5.75402C17.3557 5.87726 17.3912 6.02183 17.3935 6.17041C17.3958 6.31899 17.3649 6.46528 17.3043 6.59176C17.2437 6.71824 17.1561 6.81955 17.052 6.88354L7.75 12.5889ZM7.75 25.4708C11.616 25.4708 14.75 23.4522 14.75 20.9621C14.75 18.4721 11.616 16.4535 7.75 16.4535C3.884 16.4535 0.75 18.4721 0.75 20.9621C0.75 23.4522 3.884 25.4708 7.75 25.4708Z" stroke="white" stroke-width="1.5" stroke-linecap="round" stroke-linejoin="round"/>
</svg>
