<svg width="50" height="50" viewBox="0 0 50 50" fill="none" xmlns="http://www.w3.org/2000/svg">
<path d="M7.21872 28.7417C6.25084 27.488 5.72688 25.9484 5.72913 24.3646C5.73065 22.5792 6.39523 20.8581 7.59396 19.535C8.79269 18.212 10.4401 17.3813 12.2166 17.2042C12.3736 17.1869 12.5188 17.1126 12.6247 16.9956C12.7307 16.8785 12.79 16.7266 12.7916 16.5688C12.7955 14.6584 13.5575 12.8278 14.9103 11.4789C16.263 10.1301 18.0959 9.37334 20.0062 9.375C21.8396 9.375 23.5104 10.0563 24.7833 11.1792M34.5021 23.8521C34.5002 22.9009 34.31 21.9595 33.9426 21.0821C33.5752 20.2047 33.0378 19.4087 32.3614 18.74C31.6849 18.0713 30.8828 17.5431 30.0012 17.1858C29.1197 16.8285 28.1761 16.6493 27.225 16.6583C25.3258 16.6737 23.5095 17.4379 22.1707 18.7849C20.8319 20.132 20.0787 21.9529 20.075 23.8521C20.075 24.1792 19.825 24.4563 19.5 24.4875C17.724 24.666 16.0774 25.4971 14.8789 26.8198C13.6804 28.1426 13.0154 29.863 13.0125 31.6479C13.0163 33.5579 13.7781 35.3882 15.1304 36.737C16.4827 38.0858 18.315 38.8428 20.225 38.8417H37.0583C38.9683 38.8428 40.8006 38.0858 42.1529 36.737C43.5052 35.3882 44.2669 33.5579 44.2708 31.6479C44.2675 29.7376 43.506 27.9067 42.1536 26.5575C40.8013 25.2082 38.9686 24.451 37.0583 24.4521H35.0791C34.9231 24.4488 34.7748 24.3838 34.6666 24.2713C34.5584 24.1589 34.4993 24.0081 34.5021 23.8521Z" stroke="#E8C96A" stroke-width="2.5" stroke-linecap="round" stroke-linejoin="round"/>
</svg>
