<svg width="42" height="42" viewBox="0 0 42 42" fill="none" xmlns="http://www.w3.org/2000/svg">
<path d="M19.2543 5.99025C19.2574 5.97097 19.2566 5.95125 19.2519 5.93229C19.2472 5.91333 19.2387 5.89552 19.2269 5.87993C19.2152 5.86435 19.2003 5.85132 19.1834 5.84163C19.1664 5.83194 19.1477 5.82579 19.1283 5.82356H19.1191L19.0981 5.82094L19.0285 5.81831C18.969 5.81569 18.8907 5.82094 18.7936 5.83406C18.5404 5.87192 18.301 5.97354 18.0979 6.12938C18.067 6.15339 18.0468 6.18874 18.0419 6.22763C18.0369 6.26652 18.0477 6.30577 18.0717 6.33675C18.0957 6.36773 18.1311 6.3879 18.1699 6.39282C18.2088 6.39775 18.2481 6.38702 18.2791 6.363C18.5069 6.18959 18.7884 6.10178 19.0744 6.11494L19.0863 6.11625C19.1056 6.11959 19.1255 6.11894 19.1446 6.11434C19.1637 6.10974 19.1817 6.10128 19.1974 6.08948C19.2132 6.07768 19.2263 6.06279 19.2361 6.04573C19.2459 6.02867 19.252 6.00979 19.2543 5.99025ZM19.6979 6.65306C19.5749 6.52874 19.4143 6.44849 19.2411 6.42476C19.0679 6.40103 18.8916 6.43514 18.7398 6.52181C18.4116 6.70556 18.2804 7.09931 18.3985 7.45369C18.4248 7.53244 18.5166 7.55869 18.5823 7.51931L18.8133 7.38413L18.8185 7.38806L19.2648 7.12556C19.2648 7.08619 19.2516 7.03369 19.2254 6.99431C19.1466 6.86306 18.9629 6.81056 18.8316 6.88931C18.8026 6.90661 18.7772 6.92933 18.7568 6.95625C18.7701 6.95868 18.7828 6.96403 18.7938 6.97191C18.8048 6.9798 18.814 6.99002 18.8206 7.00186C18.8272 7.01369 18.8311 7.02684 18.832 7.04036C18.8329 7.05388 18.8309 7.06744 18.8259 7.08007C18.821 7.09269 18.8133 7.10407 18.8035 7.11339C18.7936 7.1227 18.7819 7.12972 18.769 7.13394C18.7561 7.13817 18.7425 7.13949 18.729 7.13781C18.7156 7.13614 18.7026 7.1315 18.6912 7.12425C18.6862 7.17917 18.6986 7.23428 18.7266 7.28175C18.7492 7.32001 18.778 7.35418 18.8119 7.38281L18.6216 7.49306C18.5848 7.46738 18.5572 7.43058 18.5429 7.38806C18.5082 7.3317 18.4853 7.26884 18.4758 7.20334C18.4663 7.13783 18.4702 7.07107 18.4874 7.00715C18.5047 6.94324 18.5348 6.88351 18.5759 6.83165C18.617 6.77979 18.6683 6.73688 18.7266 6.70556C18.7835 6.67268 18.8463 6.65134 18.9114 6.64278C18.9765 6.63422 19.0426 6.6386 19.106 6.65567C19.1695 6.67275 19.2289 6.70217 19.2809 6.74227C19.3329 6.78236 19.3765 6.83233 19.4091 6.88931C19.4354 6.92869 19.4485 6.96675 19.4616 7.00481L19.6585 6.88931C19.7504 6.84994 19.7635 6.71869 19.6979 6.65306ZM17.9654 8.76619L17.7423 7.80806C17.6898 7.59806 17.9391 7.44056 18.0966 7.59806L18.8185 8.26744C18.976 8.39869 18.9498 8.63494 18.766 8.73994L18.4116 8.96306C18.2279 9.05494 18.0048 8.96306 17.9654 8.76619ZM18.8185 9.33056C18.556 9.47494 18.2804 9.55369 18.0179 9.56681C17.926 9.56681 17.8998 9.69806 17.9785 9.73744C18.2935 9.89494 18.7004 9.89494 19.0285 9.69806C19.3698 9.50119 19.5666 9.15994 19.5798 8.79244C19.5798 8.70056 19.4616 8.66119 19.4223 8.73994C19.2779 8.97619 19.0679 9.17306 18.8185 9.33056ZM16.4166 7.86056C16.1016 8.04431 15.9573 8.42494 16.0623 8.75306C16.0885 8.84494 16.2066 8.89744 16.2854 8.84494L16.4928 8.72419C16.4573 8.69549 16.4271 8.66085 16.4035 8.62181C16.2723 8.38556 16.351 8.07056 16.5873 7.93931C16.6446 7.90434 16.7085 7.88132 16.775 7.87164C16.8415 7.86196 16.9092 7.86581 16.9742 7.88297C17.0392 7.90014 17.1 7.93025 17.1531 7.97151C17.2061 8.01276 17.2503 8.06432 17.2829 8.12306L17.3091 8.18213L17.3354 8.23856L17.3748 8.21494C17.4404 8.17556 17.4666 8.08369 17.4141 8.01806C17.2899 7.88331 17.1238 7.79445 16.9428 7.76586C16.7617 7.73728 16.5763 7.77065 16.4166 7.86056Z" fill="#E8C96A"/>
<path d="M17.0993 8.22807C17.0602 8.16283 16.9972 8.11539 16.9237 8.09579C16.8502 8.07619 16.772 8.08597 16.7056 8.12307C16.6749 8.14071 16.6481 8.16437 16.6268 8.19263C16.6391 8.196 16.6505 8.20187 16.6604 8.20988C16.6702 8.21788 16.6783 8.22785 16.6842 8.23915C16.69 8.25044 16.6934 8.26283 16.6942 8.27551C16.695 8.28819 16.6931 8.3009 16.6887 8.31283C16.6844 8.32477 16.6776 8.33566 16.6688 8.34483C16.66 8.354 16.6494 8.36125 16.6376 8.36611C16.6259 8.37097 16.6133 8.37334 16.6006 8.37308C16.5879 8.37281 16.5754 8.36992 16.5638 8.36457C16.5625 8.41767 16.5751 8.47019 16.6006 8.51682C16.6268 8.55619 16.6531 8.59557 16.6924 8.62182L17.1256 8.37244C17.1256 8.30682 17.1124 8.26744 17.0993 8.22807ZM16.6098 7.19907C16.6213 7.23632 16.6178 7.27663 16.5998 7.31126C16.5819 7.3459 16.551 7.37208 16.5139 7.38413C16.2094 7.48126 15.9968 7.67157 15.9154 7.94194C15.9041 7.97937 15.8784 8.01076 15.844 8.02922C15.8095 8.04768 15.7691 8.0517 15.7317 8.04038C15.6943 8.02907 15.6629 8.00335 15.6444 7.96889C15.626 7.93443 15.6219 7.89405 15.6333 7.85663C15.7488 7.47338 16.0493 7.22269 16.4247 7.10326C16.4431 7.09698 16.4626 7.09449 16.482 7.09594C16.5015 7.09739 16.5204 7.10275 16.5377 7.1117C16.5549 7.12065 16.5702 7.133 16.5826 7.14802C16.595 7.16303 16.6043 7.1804 16.6098 7.19907Z" fill="#E8C96A"/>
<path d="M26.9801 4.1055C26.7558 4.03969 26.5205 4.0196 26.2883 4.04643C26.0561 4.07326 25.8316 4.14646 25.6282 4.26169H25.6203C25.2677 4.30187 24.935 4.44627 24.6648 4.67644C24.5371 4.71844 24.4163 4.77531 24.3026 4.84706C24.2194 4.89606 24.1416 4.95206 24.0689 5.01506C23.9034 5.06927 23.7472 5.1485 23.6056 5.25C23.2551 5.5015 23.0084 5.87224 22.9117 6.2927C22.815 6.71315 22.8751 7.15443 23.0806 7.53375L23.204 7.75031L23.2119 7.76475L23.2381 7.80806L23.2591 7.84219L23.3011 7.91569C23.2486 8.14319 23.1611 8.35581 23.0386 8.55356C22.9214 8.74081 22.7796 8.90706 22.6134 9.05231C22.6642 8.49414 22.5819 7.93187 22.3732 7.41169L22.3522 7.3605C22.576 6.82134 22.5796 6.21595 22.3622 5.67418C22.1448 5.13241 21.7237 4.69742 21.1893 4.4625L20.6998 3.73012C20.2832 2.91955 19.5932 2.28256 18.752 1.932C18.3697 1.79464 17.9665 1.72405 17.5603 1.72331V1.72462C16.8148 1.73476 16.0854 1.94314 15.4471 2.32837L14.9221 2.64337L14.4457 2.919C13.9415 3.18759 13.5018 3.56267 13.157 4.01823C12.8123 4.47378 12.5708 4.9989 12.4494 5.55713C12.3798 6.11668 12.4273 6.68459 12.5889 7.22482C12.7504 7.76505 13.0225 8.26581 13.3878 8.69531L13.4364 8.78062C13.3771 9.09161 13.3847 9.41164 13.4586 9.71948C13.5325 10.0273 13.6711 10.3159 13.8651 10.566C14.0592 10.8162 14.3042 11.0222 14.584 11.1703C14.8638 11.3185 15.1719 11.4054 15.4878 11.4253C15.6059 11.5741 15.735 11.7128 15.875 11.8414C15.8339 11.9919 15.8002 12.1437 15.7739 12.2968L9.69707 15.8799L8.89645 16.3393C8.05645 16.8249 7.67582 17.8487 7.9777 18.7674L8.67332 20.8674C8.93582 21.6287 9.82832 21.9699 10.5239 21.5631C11.0489 21.2612 11.2852 20.6312 11.0883 20.0537L10.3008 17.6912C10.1958 17.3631 10.3271 17.0087 10.6158 16.8381L15.7319 13.8206L15.7582 14.0044C15.8711 14.7263 16.1349 15.414 16.5313 16.0269C16.6672 16.2374 16.7401 16.4825 16.7413 16.7331V30.0589L13.7448 33.2653L13.7186 33.2443L12.8878 34.1722C12.3786 34.7532 12.0987 35.4998 12.1003 36.2723V38.7266C12.1003 39.2731 12.3174 39.7973 12.7038 40.1837C13.0902 40.5701 13.6144 40.7873 14.1609 40.7873H16.7334C17.1088 40.7869 17.4741 40.6657 17.7753 40.4416C18.0765 40.2175 18.2976 39.9024 18.4058 39.5429C18.514 39.1834 18.5036 38.7986 18.3761 38.4455C18.2487 38.0924 18.0109 37.7896 17.6981 37.5821L17.4356 37.4128V37.3708L21.3376 33.9518L21.3718 33.9216C21.4365 36.2053 21.4982 38.4895 21.5568 40.7741L27.8227 40.7873C28.1879 40.7875 28.5433 40.6688 28.8351 40.4493C29.127 40.2298 29.3395 39.9212 29.4406 39.5703C29.5416 39.2194 29.5258 38.8451 29.3954 38.5039C29.265 38.1628 29.0272 37.8733 28.7178 37.6792L28.6876 37.6596L28.6548 37.6425L26.8541 36.6516L27.131 21L27.1533 20.4343V20.0274L27.1704 19.1349H27.1205C27.0519 17.0663 26.67 15.0201 25.9878 13.0659C26.1324 12.9429 26.2725 12.8146 26.4078 12.6814C28.7441 11.3518 29.6864 9.56813 30.0697 8.22806C30.3886 7.10194 30.3296 5.92462 30.2534 5.25919L32.6527 3.84431C32.9808 3.66056 33.0858 3.25369 32.9152 2.95181C32.8727 2.87713 32.8157 2.81166 32.7476 2.75924C32.6795 2.70682 32.6016 2.66849 32.5185 2.6465C32.4354 2.62451 32.3488 2.61929 32.2636 2.63114C32.1785 2.643 32.0966 2.6717 32.0227 2.71556L30.218 3.77869L30.0434 3.47681C29.9865 3.38785 29.8982 3.32359 29.7961 3.29684C29.6939 3.27008 29.5854 3.28279 29.4922 3.33244C29.4094 3.38501 29.3477 3.46487 29.3176 3.55819C29.2538 3.51281 29.1786 3.48619 29.1004 3.48132C29.0222 3.47645 28.9443 3.49353 28.8753 3.53062C28.8232 3.56402 28.7791 3.60852 28.7462 3.66093C28.7133 3.71334 28.6924 3.77238 28.685 3.83381C28.6259 3.80693 28.5613 3.79412 28.4964 3.7964C28.4315 3.79868 28.368 3.81598 28.3109 3.84694C28.2588 3.88006 28.2145 3.92428 28.1814 3.97646C28.1483 4.02865 28.1271 4.08749 28.1193 4.14881C28.0604 4.12214 27.9961 4.10945 27.9314 4.11173C27.8668 4.114 27.8035 4.13119 27.7466 4.16194C27.657 4.21879 27.5923 4.30741 27.5654 4.41C27.3915 4.27169 27.1922 4.1687 26.9788 4.10681M17.5589 3.03712C17.8083 3.03712 18.0577 3.08306 18.2926 3.16838C18.6431 3.33402 18.9556 3.57007 19.2108 3.86183C19.4659 4.15358 19.6583 4.49477 19.7758 4.86413C19.3668 4.77322 18.9465 4.74402 18.5289 4.7775C17.1114 4.90875 15.8251 5.64375 15.0114 6.81187C14.7751 7.15312 14.6045 7.52062 14.4733 7.95375L14.8145 8.085C15.0639 8.17688 15.3526 8.085 15.497 7.84875C15.7464 7.44187 16.232 6.79875 17.0851 6.3C17.9383 5.80125 18.7389 5.70938 19.2114 5.69625C19.487 5.69625 19.7101 5.48625 19.7495 5.22375L19.802 4.87462V4.91269L20.1958 5.60044H20.2889C20.4827 5.60051 20.6715 5.66182 20.8283 5.77562C20.9851 5.88941 21.1019 6.04987 21.162 6.23404C21.2221 6.41822 21.2225 6.61669 21.1631 6.80109C21.1036 6.98549 20.9874 7.14637 20.831 7.26075L21.1578 7.917C21.2798 8.21926 21.3329 8.54494 21.3131 8.8703C21.2934 9.19567 21.2013 9.51253 21.0436 9.79781L21.0331 9.79519C20.8468 10.1259 20.5738 10.4134 20.222 10.6181L19.3033 11.1431C18.7336 11.4752 18.1653 11.5382 17.4894 11.3138C16.7741 11.0775 16.0916 9.98287 16.0916 9.98287C15.9504 10.0677 15.789 10.113 15.6243 10.1141C15.4564 10.1127 15.2921 10.0653 15.1493 9.97707C15.0064 9.88885 14.8905 9.76316 14.8141 9.61367C14.7376 9.46418 14.7036 9.29661 14.7157 9.12915C14.7278 8.96169 14.7856 8.80075 14.8828 8.66381L14.4733 7.95506C14.2094 7.66602 14.008 7.32571 13.8816 6.95537C13.7551 6.58503 13.7063 6.1926 13.7383 5.80256C13.8256 5.43001 13.9929 5.08091 14.2286 4.77948C14.4643 4.47805 14.7628 4.2315 15.1033 4.05694L15.602 3.76819L16.1008 3.46631C16.541 3.19846 17.0438 3.0505 17.5589 3.03712ZM22.2406 10.836C22.3386 10.7905 22.4349 10.7424 22.5294 10.6916L22.5399 10.7021C23.1988 10.374 23.7579 9.87525 24.1608 9.25838C24.3926 8.88084 24.5486 8.46179 24.6202 8.02462C24.6333 7.71094 24.5414 7.4025 24.3577 7.14788L24.3393 7.119L24.2343 6.93525C24.1807 6.83881 24.1631 6.72642 24.1847 6.6182C24.2064 6.50998 24.2658 6.413 24.3524 6.34462C24.4222 6.29409 24.5065 6.26781 24.5926 6.26981C24.6539 6.26981 24.7138 6.28162 24.7724 6.30525C24.7813 6.24027 24.8048 6.17816 24.8412 6.12359C24.8776 6.06902 24.9259 6.02343 24.9824 5.99025C25.0447 5.94158 25.1202 5.91277 25.199 5.90756C25.2597 5.90609 25.3199 5.91867 25.3749 5.94431C25.3838 5.87933 25.4073 5.81722 25.4436 5.76265C25.48 5.70809 25.5283 5.66249 25.5849 5.62931C25.6601 5.58542 25.7466 5.56452 25.8336 5.56919C25.9206 5.57385 26.0043 5.60388 26.0744 5.65556C26.0865 5.60191 26.1105 5.55166 26.1445 5.5085C26.1786 5.46534 26.2219 5.43038 26.2713 5.40619C26.3385 5.36772 26.4144 5.34736 26.4918 5.34712C26.5673 5.34664 26.6415 5.3665 26.7066 5.40461C26.7717 5.44272 26.8254 5.49767 26.8619 5.56369C26.8899 5.61794 26.9206 5.67044 26.9538 5.72119C26.9729 5.75217 26.9857 5.78663 26.9915 5.82258C26.9972 5.85853 26.9958 5.89526 26.9872 5.93065C26.9787 5.96604 26.9632 5.99939 26.9417 6.02876C26.9202 6.05814 26.8931 6.08297 26.8619 6.10181C27.0719 6.47456 27.2111 6.88406 27.2688 7.30931C27.3272 8.40441 27.0575 9.49202 26.4944 10.4331C25.6912 11.8164 24.653 12.6118 23.2749 13.2366L22.2406 10.836ZM21.0029 11.2796L22.0451 13.6973L21.9191 13.7353C21.0725 14.0306 19.7941 14.4021 18.6864 14.49H18.5026C17.8595 14.4375 17.3476 13.8863 17.3083 13.1775C17.2689 12.39 17.8201 11.7206 18.5289 11.6681C19.3455 11.6062 20.156 11.4807 20.9531 11.2928L21.0029 11.2796ZM25.8224 20.4356L25.7988 20.4435H25.8251L25.5245 37.4325H22.7656C22.6541 33.2588 22.3955 24.0818 22.2944 23.8691C22.2723 23.8034 22.2315 23.7457 22.1769 23.703C22.1223 23.6603 22.0564 23.6346 21.9873 23.6289C21.7983 23.6289 21.6119 23.8403 21.6119 24.2629L21.4151 31.1666C21.3372 31.8624 20.9974 32.5025 20.4648 32.9569L20.4569 32.9647L16.1126 36.771V36.7749L13.8564 35.0424L17.8923 30.7164C17.9842 30.6114 18.0367 30.4802 18.0367 29.7189V20.4396H18.0761L25.8224 20.4356Z" fill="#E8C96A"/>
</svg>
