<svg width="24" height="24" viewBox="0 0 24 24" fill="none" xmlns="http://www.w3.org/2000/svg">
<g clip-path="url(#clip0_498_347)">
<path fill-rule="evenodd" clip-rule="evenodd" d="M19.0852 0.0308715C19.2313 0.0711705 19.3642 0.149527 19.4702 0.257946C19.5762 0.366365 19.6516 0.500965 19.6886 0.648014L20.4206 3.57944L23.352 4.31144C23.4991 4.34845 23.6338 4.42384 23.7422 4.5299C23.8507 4.63596 23.929 4.76891 23.9693 4.91515C24.0095 5.0614 24.0103 5.21571 23.9714 5.36233C23.9325 5.50896 23.8554 5.64264 23.748 5.74973L20.3194 9.1783C20.2148 9.28257 20.085 9.35804 19.9427 9.39739C19.8003 9.43674 19.6502 9.43862 19.5069 9.40287L16.7914 8.72573L12.7577 12.7577C12.5568 12.9587 12.2842 13.0716 12 13.0716C11.7158 13.0716 11.4433 12.9587 11.2423 12.7577C11.0413 12.5568 10.9284 12.2842 10.9284 12C10.9284 11.7158 11.0413 11.4433 11.2423 11.2423L15.2743 7.20859L14.5954 4.49316C14.5594 4.34959 14.5611 4.19913 14.6005 4.05643C14.6398 3.91373 14.7155 3.78365 14.82 3.67887L18.2486 0.2503C18.3559 0.143141 18.4897 0.0663694 18.6364 0.02782C18.783 -0.0107294 18.9373 -0.0096764 19.0834 0.0308715M11.3177 2.19087C11.6014 2.17178 11.8659 2.04076 12.053 1.82665C12.2401 1.61253 12.3345 1.33286 12.3154 1.04916C12.2963 0.765451 12.1653 0.500951 11.9512 0.313843C11.7371 0.126736 11.4574 0.0323473 11.1737 0.0514429C8.89183 0.210295 6.70348 1.02081 4.86864 2.3867C3.0338 3.75259 1.62959 5.61645 0.822806 7.75687C0.0160261 9.89729 -0.159412 12.2243 0.317334 14.4615C0.794079 16.6987 1.90297 18.752 3.51228 20.3776C5.12159 22.0031 7.16368 23.1326 9.39597 23.6317C11.6283 24.1309 13.9569 23.9789 16.1053 23.1936C18.2537 22.4084 20.1316 21.0229 21.5159 19.2019C22.9001 17.3809 23.7325 15.2008 23.9143 12.9206C23.937 12.6373 23.8463 12.3567 23.6621 12.1403C23.4779 11.9239 23.2153 11.7896 22.932 11.7669C22.6488 11.7441 22.3681 11.8349 22.1517 12.0191C21.9354 12.2033 21.801 12.4659 21.7783 12.7492C21.6297 14.6209 20.9469 16.4107 19.811 17.9059C18.6751 19.401 17.1339 20.5387 15.3705 21.1836C13.607 21.8286 11.6955 21.9538 9.86302 21.5444C8.03053 21.1349 6.35409 20.208 5.03288 18.8738C3.71167 17.5396 2.80124 15.8542 2.40975 14.0178C2.01825 12.1814 2.16216 10.2712 2.82437 8.51414C3.48657 6.7571 4.63924 5.2271 6.14543 4.1059C7.65162 2.9847 9.448 2.31944 11.3212 2.18916M11.1583 6.93773C11.2096 7.06875 11.2347 7.2086 11.232 7.34929C11.2292 7.48999 11.1988 7.62877 11.1425 7.75772C11.0861 7.88666 11.0049 8.00324 10.9035 8.1008C10.8021 8.19836 10.6825 8.27498 10.5514 8.3263C9.94002 8.56549 9.39786 8.95332 8.974 9.45472C8.55015 9.95611 8.25797 10.5553 8.12389 11.198C7.98981 11.8407 8.01806 12.5067 8.20609 13.1357C8.39412 13.7648 8.73598 14.337 9.20078 14.8007C9.66557 15.2644 10.2386 15.6049 10.8681 15.7915C11.4976 15.978 12.1637 16.0047 12.806 15.8692C13.4484 15.7336 14.0469 15.44 14.5473 15.015C15.0477 14.5899 15.4343 14.0469 15.672 13.4349C15.7796 13.1769 15.9837 12.9711 16.2409 12.8615C16.4981 12.7519 16.7879 12.7472 17.0485 12.8483C17.3091 12.9494 17.5199 13.1484 17.6358 13.4027C17.7518 13.6571 17.7637 13.9467 17.6692 14.2097C17.303 15.1547 16.7069 15.9934 15.935 16.6499C15.163 17.3065 14.2396 17.7602 13.2481 17.9699C12.2567 18.1797 11.2285 18.1389 10.2568 17.8513C9.2851 17.5636 8.40045 17.0382 7.68294 16.3226C6.96543 15.6069 6.4377 14.7236 6.14752 13.7527C5.85735 12.7817 5.81388 11.7537 6.02106 10.7617C6.22824 9.76972 6.67953 8.84505 7.33407 8.07139C7.98862 7.29773 8.82576 6.69951 9.76973 6.33087C9.90075 6.27953 10.0406 6.2545 10.1813 6.25721C10.322 6.25992 10.4608 6.29032 10.5897 6.34667C10.7187 6.40303 10.8352 6.48423 10.9328 6.58564C11.0304 6.68706 11.107 6.8067 11.1583 6.93773Z" fill="#E8C96A"/>
</g>
<defs>
<clipPath id="clip0_498_347">
<rect width="24" height="24" fill="white"/>
</clipPath>
</defs>
</svg>
